<?xml version="1.0" encoding="iso-8859-1"?>
<!-- Generator: Adobe Illustrator 19.0.0, SVG Export Plug-In . SVG Version: 6.00 Build 0)  -->
<svg version="1.1" id="Layer_1" xmlns="http://www.w3.org/2000/svg" xmlns:xlink="http://www.w3.org/1999/xlink" x="0px" y="0px"
	 viewBox="0 0 512.001 512.001" style="enable-background:new 0 0 512.001 512.001;" xml:space="preserve">
<polygon style="fill:#1D8EBF;" points="416.231,208.937 439.893,278.897 393.322,262.536 393.219,262.491 "/>
<polygon style="fill:#127CA0;" points="315.182,193.992 372.204,311.389 187.711,246.587 72.104,8.563 256.598,73.365 "/>
<polygon style="fill:#1D8EBF;" points="203.558,392.358 208.612,438.85 97.489,503.447 187.711,246.587 "/>
<g>
	<polygon style="fill:#2BA5F7;" points="372.204,311.389 203.558,392.358 187.711,246.587 	"/>
	<polygon style="fill:#2BA5F7;" points="416.231,208.937 393.219,262.491 372.204,311.389 315.182,193.992 	"/>
</g>
<path style="fill:#333333;" d="M447.999,276.149l-23.668-69.953l-0.014,0.005c-0.165-0.491-0.364-0.972-0.621-1.432
	c-1.294-2.319-3.592-3.906-6.219-4.295l-96.575-14.287L264.294,69.623c-0.985-2.03-2.732-3.588-4.861-4.335L74.943,0.484
	c-3.271-1.149-6.914-0.211-9.222,2.378c-2.308,2.589-2.826,6.314-1.31,9.433l114.043,234.823L89.414,500.608
	c-1.188,3.382-0.143,7.145,2.619,9.429c1.571,1.299,3.507,1.963,5.455,1.963c1.477,0,2.963-0.382,4.299-1.159l111.129-64.592
	c2.924-1.7,4.573-4.962,4.208-8.323l-4.402-40.477l163.182-78.344c1.864-0.896,3.342-2.436,4.159-4.335l17.857-41.555l39.142,13.749
	c0.928,0.325,1.884,0.484,2.834,0.484c2.214,0,4.388-0.861,6.016-2.471C448.238,282.677,449.048,279.249,447.999,276.149z
	 M250.439,80.266l104.98,216.162l-161.552-56.747L88.887,23.521L250.439,80.266z M113.25,484.384l70.03-199.367l16.227,149.232
	L113.25,484.384z M197.683,259.162l152.189,53.458l-139.113,66.789L197.683,259.162z M371.723,290.827l-41.767-86.002l74.02,10.95
	L371.723,290.827z M404.69,257.456l10.585-24.632l10.885,32.173L404.69,257.456z"/>
<g>
</g>
<g>
</g>
<g>
</g>
<g>
</g>
<g>
</g>
<g>
</g>
<g>
</g>
<g>
</g>
<g>
</g>
<g>
</g>
<g>
</g>
<g>
</g>
<g>
</g>
<g>
</g>
<g>
</g>
</svg>
