<?xml version="1.0" encoding="iso-8859-1"?>
<!-- Generator: Adobe Illustrator 19.0.0, SVG Export Plug-In . SVG Version: 6.00 Build 0)  -->
<svg version="1.1" id="Capa_1" xmlns="http://www.w3.org/2000/svg" xmlns:xlink="http://www.w3.org/1999/xlink" x="0px" y="0px"
	 viewBox="0 0 511.993 511.993" style="enable-background:new 0 0 511.993 511.993;" xml:space="preserve">
<path style="fill:#0000FF;" d="M431.937,511.94H191.972v-42.66h239.965c20.616,0,37.328-16.712,37.328-37.328
	c0-20.616-16.712-37.328-37.328-37.328H79.988C35.813,394.624,0,358.81,0,314.635s35.813-79.988,79.988-79.988h111.984v42.66H79.988
	c-20.616,0-37.328,16.712-37.328,37.328s16.712,37.328,37.328,37.328h351.949c44.175,0,79.988,35.813,79.988,79.988
	S476.112,511.94,431.937,511.94z"/>
<path style="fill:#CCCCFF;" d="M330.618,277.308h-74.656c-11.785,0-21.33-9.545-21.33-21.33v-74.656
	c0.021-5.653,2.282-11.06,6.292-15.038L400.902,6.307c8.329-8.329,21.831-8.34,30.161-0.021c0.011,0.011,0.011,0.011,0.021,0.021
	l74.656,74.656c8.329,8.329,8.34,21.831,0.021,30.161c-0.011,0.011-0.011,0.011-0.021,0.021L345.763,271.122
	C341.742,275.111,336.292,277.34,330.618,277.308z M277.293,234.647h44.474L460.413,96.001l-44.473-44.474L277.293,190.174V234.647z
	"/>
<g>
</g>
<g>
</g>
<g>
</g>
<g>
</g>
<g>
</g>
<g>
</g>
<g>
</g>
<g>
</g>
<g>
</g>
<g>
</g>
<g>
</g>
<g>
</g>
<g>
</g>
<g>
</g>
<g>
</g>
</svg>
