<?xml version="1.0" encoding="iso-8859-1"?>
<!-- Generator: Adobe Illustrator 19.0.0, SVG Export Plug-In . SVG Version: 6.00 Build 0)  -->
<svg version="1.1" id="Capa_1" xmlns="http://www.w3.org/2000/svg" xmlns:xlink="http://www.w3.org/1999/xlink" x="0px" y="0px"
	 viewBox="0 0 512 512" style="enable-background:new 0 0 512 512;" xml:space="preserve">
<g style="opacity:0.4;">
	<path style="fill:#40B9E6;" d="M480,462.624H96c-53.024,0-96-42.976-96-96s42.976-96,96-96h48c17.68,0,32,14.32,32,32
		s-14.32,32-32,32H96c-17.68,0-32,14.32-32,32s14.32,32,32,32h384c17.68,0,32,14.32,32,32S497.68,462.624,480,462.624z"/>
</g>
<path style="fill:#40B9E6;" d="M480,62.624L480,62.624c-17.68-17.664-46.32-17.664-64,0l-173.28,173.28
	c-12,12.016-18.736,28.304-18.72,45.28v37.44h37.44c16.976,0.016,33.264-6.72,45.28-18.72L480,126.624
	C497.664,108.944,497.664,80.304,480,62.624z"/>
<g>
</g>
<g>
</g>
<g>
</g>
<g>
</g>
<g>
</g>
<g>
</g>
<g>
</g>
<g>
</g>
<g>
</g>
<g>
</g>
<g>
</g>
<g>
</g>
<g>
</g>
<g>
</g>
<g>
</g>
</svg>
